<svg id="e5yLo1MkOB41" xmlns="http://www.w3.org/2000/svg" xmlns:xlink="http://www.w3.org/1999/xlink" viewBox="0 0 100 71.875" shape-rendering="geometricPrecision" text-rendering="geometricPrecision">
<style><![CDATA[
#e5yLo1MkOB42_to {animation: e5yLo1MkOB42_to__to 8000ms linear infinite normal forwards}@keyframes e5yLo1MkOB42_to__to { 0% {offset-distance: 0%} 50% {offset-distance: 45.74202%} 66.666667% {offset-distance: 60.578538%} 83.333333% {offset-distance: 79.259338%} 100% {offset-distance: 100%}} #e5yLo1MkOB42_tr {animation: e5yLo1MkOB42_tr__tr 8000ms linear infinite normal forwards}@keyframes e5yLo1MkOB42_tr__tr { 0% {transform: rotate(-81.08621deg)} 3.333333% {transform: rotate(-71.90669deg)} 6.666667% {transform: rotate(-63.000758deg)} 10% {transform: rotate(-55.491934deg)} 13.333333% {transform: rotate(-48.031779deg)} 16.666667% {transform: rotate(-41.322842deg)} 20% {transform: rotate(-35.165076deg)} 23.333333% {transform: rotate(-28.572272deg)} 26.666667% {transform: rotate(-21.531508deg)} 30% {transform: rotate(-12.714339deg)} 33.333333% {transform: rotate(-1.639119deg)} 36.666667% {transform: rotate(13.992075deg)} 40% {transform: rotate(34.937571deg)} 43.333333% {transform: rotate(57.603987deg)} 46.666667% {transform: rotate(76.027777deg)} 50% {transform: rotate(95.655014deg)} 53.333333% {transform: rotate(126.098259deg)} 56.666667% {transform: rotate(147.874921deg)} 60% {transform: rotate(163.311388deg)} 63.333333% {transform: rotate(178.604037deg)} 66.666667% {transform: rotate(196.288238deg)} 70% {transform: rotate(215.520012deg)} 73.333333% {transform: rotate(231.581207deg)} 76.666667% {transform: rotate(244.252147deg)} 80% {transform: rotate(253.718452deg)} 83.333333% {transform: rotate(241.652473deg)} 86.666667% {transform: rotate(187.462618deg)} 90% {transform: rotate(167.843339deg)} 93.333333% {transform: rotate(161.549939deg)} 100% {transform: rotate(186.778938deg)}}
]]></style>
<g id="e5yLo1MkOB42_to" style="offset-path:path('M109.963581,7.483735C93.998749,58.758121,6.441284,73.856748,11.884483,23.189673C13.388895,7.474055,34.965806,2.702901,48.021926,7.72408C67.592944,15.611646,72.944865,38.657847,71.84614,54.856466C74.707324,69.242568,102.308786,62.171681,130.341749,66.915209');offset-rotate:0deg"><g id="e5yLo1MkOB42_tr" transform="rotate(-81.08621)"><path d="M97.38,6.916c0-.011.011-.019.01-.031c0-.003-.004-.005-.005-.008c0-.003.003-.005.002-.008-.001-.006-.008-.009-.009-.015-.001-.007.004-.013.002-.019-.006-.021-.027-.029-.037-.047-.015-.029-.027-.053-.051-.076-.007-.007-.008-.017-.016-.023s-.014-.01-.023-.016c-.021-.014-.045-.014-.07-.022-.02-.007-.031-.027-.052-.029L64.545,2.709c-.015-.002-.025.01-.039.011-.037,0-.065.013-.1.027-.039.016-.072.029-.1.059-.009.009-.023.008-.031.018l-5.527,7.384c-.008.011-.003.026-.01.038-.018.032-.022.061-.027.097-.004.024-.023.042-.021.067c0,.003.004.005.004.008.002.016.014.026.018.042.004.013-.005.026,0,.039l.735,1.732-2.563.382c-.035.005-.055.034-.085.051-.031.016-.067.017-.091.044l-5.952,6.689c-.008.009-.004.021-.01.03-.023.032-.027.065-.036.104-.008.037-.02.069-.013.106.002.011-.007.021-.004.032.011.041.042.068.068.099.01.013.008.031.02.042.003.003.008.002.011.004.052.043.115.07.184.07.025,0,.052-.003.078-.01l9.307-2.559l2.472,2.856c.058.067.14.101.222.101.068,0,.136-.023.192-.071.021-.018.02-.047.035-.069L90.341,9.073l6.835-1.879c.021-.006.029-.027.047-.037.029-.015.057-.024.08-.048.007-.008.016-.011.023-.019.006-.007.007-.015.012-.022.013-.02.014-.042.022-.065.007-.021.027-.034.03-.056.001-.012-.01-.02-.01-.031ZM51.853,19.046l5.223-5.87L92.327,7.919L51.853,19.046ZM64.643,3.311l29.663,3.56-34.694,3.16l5.031-6.72Zm-5.234,7.328L86.924,8.133L60.046,12.141l-.637-1.502Zm3.776,9.041l-2.197-2.538L86.676,10.08l-23.491,9.6Z" transform="scale(-0.330043,0.394417) translate(-74.041229,-11.490388)" fill="#cfcfcf" stroke="#cfcfcf"/></g></g></svg>
